<svg width="121" height="34" viewBox="0 0 121 34" fill="none" xmlns="http://www.w3.org/2000/svg">
<path d="M22.8663 26.218V21.0456C23.3888 21.7628 24.4774 22.3496 25.9579 22.3496C28.9841 22.3496 31.0088 19.959 31.0088 16.7208C31.0088 13.5479 29.2018 11.1573 26.0667 11.1573C24.4556 11.1573 23.2582 11.8744 22.7792 12.7003V11.3963H19.9707V26.218H22.8663ZM28.1568 16.7426C28.1568 18.655 26.9811 19.7634 25.5007 19.7634C24.0202 19.7634 22.8228 18.6333 22.8228 16.7426C22.8228 14.8518 24.0202 13.7435 25.5007 13.7435C26.9811 13.7435 28.1568 14.8518 28.1568 16.7426Z" fill="#03020A"/>
<path d="M39.8329 11.3529C39.6151 11.3311 39.3974 11.3094 39.1579 11.3094C38.2435 11.3094 36.7631 11.5702 36.11 12.9828V11.3963H33.3014V22.0888H36.197V17.1989C36.197 14.8953 37.4815 14.1781 38.962 14.1781C39.2233 14.1781 39.5063 14.1998 39.8329 14.265V11.3529Z" fill="#03020A"/>
<path d="M43.8752 15.5255C43.9405 14.5476 44.7678 13.4175 46.27 13.4175C47.9247 13.4175 48.6213 14.4606 48.6649 15.5255H43.8752ZM48.9479 18.3073C48.5996 19.2635 47.8594 19.9373 46.5095 19.9373C45.0726 19.9373 43.8752 18.9158 43.8099 17.5032H51.4734C51.4734 17.4597 51.5169 17.0251 51.5169 16.6122C51.5169 13.1784 49.5357 11.0703 46.2265 11.0703C43.4833 11.0703 40.9578 13.2871 40.9578 16.6991C40.9578 20.3067 43.5486 22.4148 46.4878 22.4148C49.1221 22.4148 50.8203 20.8718 51.3645 19.0245L48.9479 18.3073Z" fill="#03020A"/>
<path d="M56.6927 26.218V21.0456C57.2153 21.7628 58.3038 22.3496 59.7843 22.3496C62.8105 22.3496 64.8352 19.959 64.8352 16.7208C64.8352 13.5479 63.0282 11.1573 59.8931 11.1573C58.282 11.1573 57.0846 11.8744 56.6057 12.7003V11.3963H53.7971V26.218H56.6927ZM61.9832 16.7426C61.9832 18.655 60.8075 19.7634 59.3271 19.7634C57.8466 19.7634 56.6492 18.6333 56.6492 16.7426C56.6492 14.8518 57.8466 13.7435 59.3271 13.7435C60.8075 13.7435 61.9832 14.8518 61.9832 16.7426Z" fill="#03020A"/>
<path d="M70.0235 22.0888V6.35436H67.1279V22.0888H70.0235Z" fill="#03020A"/>
<path d="M72.4066 19.1766C72.4066 20.85 73.7999 22.393 76.0859 22.393C77.6752 22.393 78.6985 21.6541 79.2428 20.8066C79.2428 21.2195 79.2863 21.8063 79.3516 22.0888H82.0077C81.9424 21.7193 81.8771 20.9587 81.8771 20.3936V15.1343C81.8771 12.9828 80.6144 11.0703 77.218 11.0703C74.3442 11.0703 72.7985 12.9176 72.6243 14.591L75.1933 15.1343C75.2804 14.1998 75.9771 13.3957 77.2398 13.3957C78.459 13.3957 79.0468 14.026 79.0468 14.7866C79.0468 15.1561 78.8509 15.4603 78.2413 15.5473L75.607 15.9384C73.8217 16.1992 72.4066 17.2641 72.4066 19.1766ZM76.6955 20.2415C75.7594 20.2415 75.3022 19.633 75.3022 19.0028C75.3022 18.1769 75.89 17.764 76.6302 17.6553L79.0468 17.2859V17.764C79.0468 19.6547 77.9147 20.2415 76.6955 20.2415Z" fill="#03020A"/>
<path d="M89.5648 13.7435C91.0017 13.7435 91.6766 14.6562 91.9379 15.5473L94.5287 14.678C94.0715 12.8741 92.4168 11.0703 89.4995 11.0703C86.3862 11.0703 83.9478 13.4392 83.9478 16.7426C83.9478 20.0242 86.4297 22.4148 89.5866 22.4148C92.4386 22.4148 94.115 20.5892 94.594 18.8072L92.0467 17.9596C91.8072 18.7854 91.067 19.7634 89.5866 19.7634C88.1061 19.7634 86.8434 18.6768 86.8434 16.7426C86.8434 14.8084 88.0843 13.7435 89.5648 13.7435Z" fill="#03020A"/>
<path d="M98.7288 15.5255C98.7941 14.5476 99.6215 13.4175 101.124 13.4175C102.778 13.4175 103.475 14.4606 103.519 15.5255H98.7288ZM103.802 18.3073C103.453 19.2635 102.713 19.9373 101.363 19.9373C99.9263 19.9373 98.7288 18.9158 98.6635 17.5032H106.327C106.327 17.4597 106.371 17.0251 106.371 16.6122C106.371 13.1784 104.389 11.0703 101.08 11.0703C98.3369 11.0703 95.8115 13.2871 95.8115 16.6991C95.8115 20.3067 98.4023 22.4148 101.341 22.4148C103.976 22.4148 105.674 20.8718 106.218 19.0245L103.802 18.3073Z" fill="#03020A"/>
<path d="M118.862 6.35436H116.01V12.4612C115.705 11.8962 114.834 11.1355 112.983 11.1355C109.957 11.1355 107.845 13.5913 107.845 16.7208C107.845 19.959 110.022 22.3496 113.07 22.3496C114.507 22.3496 115.596 21.6976 116.075 20.85C116.075 21.3499 116.14 21.8715 116.184 22.0888H118.949C118.905 21.6541 118.862 20.8718 118.862 20.1546V6.35436ZM110.763 16.7208C110.763 14.8084 111.938 13.7217 113.419 13.7217C114.899 13.7217 116.053 14.7866 116.053 16.6991C116.053 18.6333 114.899 19.7634 113.419 19.7634C111.895 19.7634 110.763 18.6333 110.763 16.7208Z" fill="#03020A"/>
<g clip-path="url(#clip0_102_778)">
<path d="M12.4631 12.3359C12.4631 10.909 11.2181 9.75233 9.68241 9.75233C8.1467 9.75233 6.90176 10.909 6.90176 12.3359V19.5052C6.90176 20.9321 8.1467 22.0888 9.68241 22.0888C11.2181 22.0888 12.4631 20.9321 12.4631 19.5052V12.3359Z" fill="#FC690C"/>
<path d="M9.67536 8.64741C11.2111 8.64741 12.456 7.40469 12.456 5.87171C12.456 4.33873 11.2111 3.09601 9.67536 3.09601C8.13965 3.09601 6.89471 4.33873 6.89471 5.87171C6.89471 7.40469 8.13965 8.64741 9.67536 8.64741Z" fill="#0029F5"/>
<path d="M5.5613 16.571C5.5613 15.1442 4.31636 13.9875 2.78065 13.9875C1.24494 13.9875 0 15.1442 0 16.571V23.7404C0 25.1672 1.24494 26.3239 2.78065 26.3239C4.31636 26.3239 5.5613 25.1672 5.5613 23.7404V16.571Z" fill="#0029F5"/>
<path d="M2.78065 12.883C4.31636 12.883 5.5613 11.6403 5.5613 10.1073C5.5613 8.57436 4.31636 7.33163 2.78065 7.33163C1.24494 7.33163 0 8.57436 0 10.1073C0 11.6403 1.24494 12.883 2.78065 12.883Z" fill="#FC690C"/>
</g>
<defs>
<clipPath id="clip0_102_778">
<rect width="12.5002" height="24.7233" fill="white" transform="translate(0 2.86368)"/>
</clipPath>
</defs>
</svg>
